<?xml version="1.0" encoding="UTF-8" standalone="no"?>
<!-- Licensed as CC0 Public Domain Dedication, see https://creativecommons.org/publicdomain/zero/1.0/. -->

<svg
   xmlns:ns="http://creativecommons.org/"
   xmlns:dc="http://purl.org/dc/elements/1.1/"
   xmlns:cc="http://creativecommons.org/ns#"
   xmlns:rdf="http://www.w3.org/1999/02/22-rdf-syntax-ns#"
   xmlns:svg="http://www.w3.org/2000/svg"
   xmlns="http://www.w3.org/2000/svg"
   xmlns:sodipodi="http://sodipodi.sourceforge.net/DTD/sodipodi-0.dtd"
   xmlns:inkscape="http://www.inkscape.org/namespaces/inkscape"
   version="1.1"
   x="0px"
   y="0px"
   width="300"
   height="300"
   viewBox="0 0 300 300"
   xml:space="preserve"
   id="svg11"
   sodipodi:docname="robotbodyV2.svg"
   inkscape:version="0.92.2 (5c3e80d, 2017-08-06)"><metadata
     id="metadata17"><rdf:RDF><ns:Work
         rdf:about=""><dc:format>image/svg+xml</dc:format><dc:type
           rdf:resource="http://purl.org/dc/dcmitype/StillImage" /></ns:Work><cc:Work
         rdf:about=""><dc:format>image/svg+xml</dc:format><dc:type
           rdf:resource="http://purl.org/dc/dcmitype/StillImage" /><dc:title /></cc:Work></rdf:RDF></metadata><defs
     id="defs15"><inkscape:path-effect
       effect="bspline"
       id="path-effect11"
       is_visible="true"
       weight="33.333333"
       steps="2"
       helper_size="0"
       apply_no_weight="true"
       apply_with_weight="true"
       only_selected="false" /></defs><sodipodi:namedview
     pagecolor="#ffffff"
     bordercolor="#666666"
     borderopacity="1"
     objecttolerance="10"
     gridtolerance="10"
     guidetolerance="10"
     inkscape:pageopacity="0"
     inkscape:pageshadow="2"
     inkscape:window-width="1920"
     inkscape:window-height="1001"
     id="namedview13"
     showgrid="false"
     inkscape:zoom="2.2262814"
     inkscape:cx="265.52864"
     inkscape:cy="182.80188"
     inkscape:window-x="-9"
     inkscape:window-y="-9"
     inkscape:window-maximized="1"
     inkscape:current-layer="svg11"
     showguides="true"
     inkscape:guide-bbox="true"
     inkscape:snap-center="true"
     inkscape:snap-page="true"
     inkscape:snap-global="false"><sodipodi:guide
       position="150,150"
       orientation="1,0"
       id="guide863"
       inkscape:locked="false" /><sodipodi:guide
       position="150,150"
       orientation="0,1"
       id="guide867"
       inkscape:locked="false" /></sodipodi:namedview><path
     style="stroke-width:0.99999988"
     d="m 344.37305,76.71875 c -45.16701,-0.131949 -96.05357,4.588572 -106.41016,7.197266 -4.60683,-1.599649 -17.58165,1.122171 -19.53906,-1.333985 -37.56056,-6.827468 -44.09062,-0.894607 -71.17578,-0.667969 -25.44363,0.212903 -47.763393,-7.745915 -62.888675,8.775391 -32.486179,35.484567 -29.202449,89.303837 1.126953,124.878907 28.308172,33.20432 73.307782,49.68692 106.125002,17.16992 20.97597,3.07228 43.89756,-5.78714 64.75195,-18.92578 C 151.37954,45.482748 352.88982,105.71785 384.26137,96.326329 c 5e-4,-0.06282 -0.001,-0.126624 -0.002,-0.189453 -2.6e-4,-0.03207 0.002,-0.06363 0.002,-0.0957 1.91886,-1.775117 3.74467,-3.556625 3.80664,-5.455079 0.0622,-1.90425 -1.65014,-3.927485 -3.44922,-5.957031 0.0153,-0.235585 0.0272,-0.374847 0.0391,-0.417969 -10.76768,-6.841335 -9.42332,-7.402186 -40.28481,-7.492344 z m 40.28481,7.492344 c 0.0147,0.0094 0.0322,0.01796 0.0469,0.02734 0,0 -0.0212,-0.120277 -0.0469,-0.02734 z"
     id="robotbody"
     inkscape:connector-curvature="0"
     sodipodi:nodetypes="sccsssccccccccsccc" /></svg>