<?xml version="1.0" encoding="UTF-8" standalone="no"?>
<!-- Licensed as CC0 Public Domain Dedication, see https://creativecommons.org/publicdomain/zero/1.0/. -->

<svg
   xmlns:ns="http://creativecommons.org/"
   xmlns:dc="http://purl.org/dc/elements/1.1/"
   xmlns:cc="http://creativecommons.org/ns#"
   xmlns:rdf="http://www.w3.org/1999/02/22-rdf-syntax-ns#"
   xmlns:svg="http://www.w3.org/2000/svg"
   xmlns="http://www.w3.org/2000/svg"
   xmlns:sodipodi="http://sodipodi.sourceforge.net/DTD/sodipodi-0.dtd"
   xmlns:inkscape="http://www.inkscape.org/namespaces/inkscape"
   version="1.1"
   x="0px"
   y="0px"
   width="300"
   height="300"
   viewBox="0 0 300 300"
   xml:space="preserve"
   id="svg11"
   sodipodi:docname="robotbodyV2.svg"
   inkscape:version="0.92.2 (5c3e80d, 2017-08-06)"><metadata
     id="metadata17"><rdf:RDF><ns:Work
         rdf:about=""><dc:format>image/svg+xml</dc:format><dc:type
           rdf:resource="http://purl.org/dc/dcmitype/StillImage" /></ns:Work><cc:Work
         rdf:about=""><dc:format>image/svg+xml</dc:format><dc:type
           rdf:resource="http://purl.org/dc/dcmitype/StillImage" /><dc:title /></cc:Work></rdf:RDF></metadata><defs
     id="defs15" /><sodipodi:namedview
     pagecolor="#ffffff"
     bordercolor="#666666"
     borderopacity="1"
     objecttolerance="10"
     gridtolerance="10"
     guidetolerance="10"
     inkscape:pageopacity="0"
     inkscape:pageshadow="2"
     inkscape:window-width="1920"
     inkscape:window-height="1001"
     id="namedview13"
     showgrid="false"
     inkscape:zoom="4.4525629"
     inkscape:cx="354.56627"
     inkscape:cy="193.00414"
     inkscape:window-x="-9"
     inkscape:window-y="-9"
     inkscape:window-maximized="1"
     inkscape:current-layer="svg11"
     showguides="true"
     inkscape:guide-bbox="true"
     inkscape:snap-center="true"
     inkscape:snap-page="true"
     inkscape:snap-global="false"><sodipodi:guide
       position="150,150"
       orientation="1,0"
       id="guide863"
       inkscape:locked="false" /><sodipodi:guide
       position="150,150"
       orientation="0,1"
       id="guide867"
       inkscape:locked="false" /></sodipodi:namedview><path
     id="robotbody"
     style="stroke-width:0.99999988"
     d="M 154.23633,58.410156 C 128.7927,58.623059 102.0256,67.815789 84.359375,90.689453 54.952301,128.76478 55.156926,179.99329 85.486328,215.56836 c 28.308172,33.20432 96.215982,41.60098 129.033202,9.08398 20.97597,3.07228 24.18287,0.72943 24.375,-1.6289 C 213.0289,52.025054 382.10501,107.19621 413.47656,97.804688 c 0.001,-0.125647 -0.003,-0.251325 0,-0.376954 0.0126,-0.713344 -0.0529,-1.42162 -0.043,-2.134765 0.0509,-0.50979 0.0404,-0.550678 0.14258,-1.025391 0.0169,-0.07868 0.0571,-0.152289 0.0645,-0.232422 0.0468,-0.503196 -0.005,-1.017979 0.19727,-1.5 0.14886,-0.393548 0.082,-0.140742 0.082,-0.783203 V 89.544922 85.716797 C 387.65505,68.188014 255.40557,79.522427 237.96289,83.916016 233.35606,82.316367 220.38124,85.038187 218.42383,82.582031 206.90794,68.131734 181.32149,58.183517 154.23633,58.410156 Z" /></svg>